<svg width="24" height="16" viewBox="0 0 24 16" fill="none" xmlns="http://www.w3.org/2000/svg">
<mask id="path-1-inside-1_503_956" fill="white">
<path d="M16.1211 2.14052C15.9139 2.14052 15.7462 2.31381 15.7462 2.52729C15.7462 2.74103 15.9142 2.91407 16.1211 2.91407H18.035L19.7353 7.00737L16.4839 12.2864H12.973C10.1321 9.79217 13.3915 6.77316 13.72 6.4811C13.8173 6.41122 13.8811 6.29501 13.8811 6.16343C13.8811 5.94969 13.7131 5.77666 13.5062 5.77666H3.04652C2.93413 5.77666 2.82298 5.82862 2.74929 5.92768C2.623 6.09713 2.65377 6.34006 2.81777 6.47009L2.81851 6.46907C3.29041 6.84433 3.3502 7.66347 3.35566 7.967L0.0885717 12.4233C0.0332444 12.4906 0 12.5779 0 12.6731C0 12.8868 0.167965 13.0599 0.374884 13.0599H2.8775C3.08467 13.0599 3.25239 12.8866 3.25239 12.6731C3.25239 12.4594 3.08442 12.2863 2.8775 12.2863H1.12811L4.02744 8.33175C4.08302 8.25573 4.10808 8.16562 4.10336 8.07732C4.10584 7.9094 4.09716 7.18625 3.80092 6.54989H12.5933C11.5976 7.68486 10.0401 10.0583 11.9083 12.286H7.42306C7.21589 12.286 7.04817 12.4593 7.04817 12.6728C7.04817 12.8865 7.21614 13.0596 7.42306 13.0596H16.6842C16.81 13.0614 16.9338 12.9979 17.0062 12.8801L20.4646 7.2638C20.536 7.15783 20.5546 7.01755 20.5018 6.89008L18.6358 2.40006C18.5849 2.24852 18.4455 2.13973 18.2812 2.13973L16.1211 2.14052ZM13.0726 12.3723L12.604 12.9738C12.765 13.1074 13.0004 13.0811 13.1299 12.915C13.2594 12.7488 13.2336 12.5059 13.0726 12.3723Z"/>
<path d="M5.15078 16C4.40372 16 3.72741 15.6875 3.23765 15.1824C2.74813 14.6774 2.44517 13.9793 2.44517 13.2086C2.44517 12.4378 2.7481 11.7401 3.23765 11.2348C3.72716 10.7297 4.40372 10.4172 5.15078 10.4172C5.89784 10.4172 6.57415 10.7297 7.06392 11.2348C7.55343 11.7398 7.85639 12.4378 7.85639 13.2086C7.85639 13.9793 7.55346 14.6771 7.06392 15.1824C6.57441 15.6874 5.89784 16 5.15078 16ZM3.76787 14.6354C4.12167 15.0004 4.61071 15.2265 5.15078 15.2265C5.69085 15.2265 6.17966 15.0007 6.53369 14.6354C6.88749 14.2704 7.10657 13.7658 7.10657 13.2086C7.10657 12.6514 6.88774 12.1471 6.53369 11.7819C6.1799 11.4168 5.69085 11.1908 5.15078 11.1908C4.61071 11.1908 4.1219 11.4166 3.76787 11.7819C3.41407 12.1469 3.19499 12.6514 3.19499 13.2086C3.19499 13.7658 3.41382 14.2702 3.76787 14.6354Z"/>
<path d="M21.2944 16C20.5473 16 19.871 15.6875 19.3813 15.1824C18.8917 14.6774 18.5888 13.9793 18.5888 13.2086C18.5888 12.4378 18.8917 11.7401 19.3813 11.2348C19.8708 10.7297 20.5473 10.4172 21.2944 10.4172C22.0415 10.4172 22.718 10.7297 23.2075 11.2348C23.697 11.7398 24 12.4378 24 13.2086C24 13.9793 23.6971 14.6771 23.2075 15.1824C22.718 15.6874 22.0415 16 21.2944 16ZM19.9115 14.6354C20.2653 15.0004 20.7543 15.2265 21.2944 15.2265C21.8345 15.2265 22.3233 15.0007 22.6773 14.6354C23.0311 14.2704 23.2502 13.7658 23.2502 13.2086C23.2502 12.6514 23.0313 12.1471 22.6773 11.7819C22.3235 11.4168 21.8345 11.1908 21.2944 11.1908C20.7543 11.1908 20.2655 11.4166 19.9115 11.7819C19.5577 12.1469 19.3386 12.6514 19.3386 13.2086C19.3386 13.7658 19.5574 14.2702 19.9115 14.6354Z"/>
<path d="M23.2443 9.89134C23.4473 9.9323 23.644 9.79561 23.6837 9.58596C23.7234 9.37658 23.5909 9.17358 23.3877 9.13263C23.3805 9.13109 20.8719 8.60174 19.1856 10.0385C18.7754 10.3879 18.332 10.8576 17.9892 11.487C17.6448 12.119 17.4044 12.9059 17.4044 13.8834C17.4044 14.0972 17.5724 14.2702 17.7793 14.2702C17.9865 14.2702 18.1542 14.0969 18.1542 13.8834C18.1542 13.0541 18.3549 12.3924 18.6422 11.8648C18.931 11.335 19.3101 10.9344 19.6626 10.6338C21.0716 9.43334 23.2381 9.8901 23.2443 9.89134Z"/>
<path fill-rule="evenodd" clip-rule="evenodd" d="M19.3972 4.49565H20.3353V5.77858H19.3972V4.49565Z"/>
<path d="M9.3307 2.53173H3.40964V1.76097H9.3307V2.53173Z"/>
<path d="M3.8068 0.773575V5.77662H8.95546V0.773575H3.8068ZM3.05676 0H9.70551V6.55039H3.05676V0Z"/>
<path fill-rule="evenodd" clip-rule="evenodd" d="M6.10033 1.37972H6.66254V3.27549H6.10033V1.37972Z"/>
<path fill-rule="evenodd" clip-rule="evenodd" d="M21.2944 13.6613C21.0522 13.6613 20.8557 13.4588 20.8557 13.2087C20.8557 12.9589 21.052 12.7561 21.2944 12.7561C21.5365 12.7561 21.733 12.9586 21.733 13.2087C21.733 13.4585 21.5368 13.6613 21.2944 13.6613Z"/>
<path fill-rule="evenodd" clip-rule="evenodd" d="M5.15078 13.6613C4.90863 13.6613 4.71213 13.4588 4.71213 13.2087C4.71213 12.9589 4.90838 12.7561 5.15078 12.7561C5.39293 12.7561 5.58943 12.9586 5.58943 13.2087C5.58943 13.4585 5.39318 13.6613 5.15078 13.6613Z"/>
<path d="M9.46789 7.28655C9.46789 7.07281 9.29993 6.89977 9.09301 6.89977C8.88584 6.89977 8.71813 7.07306 8.71813 7.28655V9.42727C8.71813 9.641 8.88609 9.81404 9.09301 9.81404C9.30018 9.81404 9.46789 9.64075 9.46789 9.42727V7.28655Z"/>
<path d="M7.93337 7.28655C7.93337 7.07281 7.76541 6.89977 7.55849 6.89977C7.35132 6.89977 7.1836 7.07306 7.1836 7.28655V9.42727C7.1836 9.641 7.35157 9.81404 7.55849 9.81404C7.76566 9.81404 7.93337 9.64075 7.93337 9.42727V7.28655Z"/>
<path d="M6.39821 7.28655C6.39821 7.07281 6.23025 6.89977 6.02333 6.89977C5.81616 6.89977 5.64845 7.07306 5.64845 7.28655V9.42727C5.64845 9.641 5.81641 9.81404 6.02333 9.81404C6.2305 9.81404 6.39821 9.64075 6.39821 9.42727V7.28655Z"/>
</mask>
<path d="M16.1211 2.14052C15.9139 2.14052 15.7462 2.31381 15.7462 2.52729C15.7462 2.74103 15.9142 2.91407 16.1211 2.91407H18.035L19.7353 7.00737L16.4839 12.2864H12.973C10.1321 9.79217 13.3915 6.77316 13.72 6.4811C13.8173 6.41122 13.8811 6.29501 13.8811 6.16343C13.8811 5.94969 13.7131 5.77666 13.5062 5.77666H3.04652C2.93413 5.77666 2.82298 5.82862 2.74929 5.92768C2.623 6.09713 2.65377 6.34006 2.81777 6.47009L2.81851 6.46907C3.29041 6.84433 3.3502 7.66347 3.35566 7.967L0.0885717 12.4233C0.0332444 12.4906 0 12.5779 0 12.6731C0 12.8868 0.167965 13.0599 0.374884 13.0599H2.8775C3.08467 13.0599 3.25239 12.8866 3.25239 12.6731C3.25239 12.4594 3.08442 12.2863 2.8775 12.2863H1.12811L4.02744 8.33175C4.08302 8.25573 4.10808 8.16562 4.10336 8.07732C4.10584 7.9094 4.09716 7.18625 3.80092 6.54989H12.5933C11.5976 7.68486 10.0401 10.0583 11.9083 12.286H7.42306C7.21589 12.286 7.04817 12.4593 7.04817 12.6728C7.04817 12.8865 7.21614 13.0596 7.42306 13.0596H16.6842C16.81 13.0614 16.9338 12.9979 17.0062 12.8801L20.4646 7.2638C20.536 7.15783 20.5546 7.01755 20.5018 6.89008L18.6358 2.40006C18.5849 2.24852 18.4455 2.13973 18.2812 2.13973L16.1211 2.14052ZM13.0726 12.3723L12.604 12.9738C12.765 13.1074 13.0004 13.0811 13.1299 12.915C13.2594 12.7488 13.2336 12.5059 13.0726 12.3723Z" fill="black"/>
<path d="M5.15078 16C4.40372 16 3.72741 15.6875 3.23765 15.1824C2.74813 14.6774 2.44517 13.9793 2.44517 13.2086C2.44517 12.4378 2.7481 11.7401 3.23765 11.2348C3.72716 10.7297 4.40372 10.4172 5.15078 10.4172C5.89784 10.4172 6.57415 10.7297 7.06392 11.2348C7.55343 11.7398 7.85639 12.4378 7.85639 13.2086C7.85639 13.9793 7.55346 14.6771 7.06392 15.1824C6.57441 15.6874 5.89784 16 5.15078 16ZM3.76787 14.6354C4.12167 15.0004 4.61071 15.2265 5.15078 15.2265C5.69085 15.2265 6.17966 15.0007 6.53369 14.6354C6.88749 14.2704 7.10657 13.7658 7.10657 13.2086C7.10657 12.6514 6.88774 12.1471 6.53369 11.7819C6.1799 11.4168 5.69085 11.1908 5.15078 11.1908C4.61071 11.1908 4.1219 11.4166 3.76787 11.7819C3.41407 12.1469 3.19499 12.6514 3.19499 13.2086C3.19499 13.7658 3.41382 14.2702 3.76787 14.6354Z" fill="black"/>
<path d="M21.2944 16C20.5473 16 19.871 15.6875 19.3813 15.1824C18.8917 14.6774 18.5888 13.9793 18.5888 13.2086C18.5888 12.4378 18.8917 11.7401 19.3813 11.2348C19.8708 10.7297 20.5473 10.4172 21.2944 10.4172C22.0415 10.4172 22.718 10.7297 23.2075 11.2348C23.697 11.7398 24 12.4378 24 13.2086C24 13.9793 23.6971 14.6771 23.2075 15.1824C22.718 15.6874 22.0415 16 21.2944 16ZM19.9115 14.6354C20.2653 15.0004 20.7543 15.2265 21.2944 15.2265C21.8345 15.2265 22.3233 15.0007 22.6773 14.6354C23.0311 14.2704 23.2502 13.7658 23.2502 13.2086C23.2502 12.6514 23.0313 12.1471 22.6773 11.7819C22.3235 11.4168 21.8345 11.1908 21.2944 11.1908C20.7543 11.1908 20.2655 11.4166 19.9115 11.7819C19.5577 12.1469 19.3386 12.6514 19.3386 13.2086C19.3386 13.7658 19.5574 14.2702 19.9115 14.6354Z" fill="black"/>
<path d="M23.2443 9.89134C23.4473 9.9323 23.644 9.79561 23.6837 9.58596C23.7234 9.37658 23.5909 9.17358 23.3877 9.13263C23.3805 9.13109 20.8719 8.60174 19.1856 10.0385C18.7754 10.3879 18.332 10.8576 17.9892 11.487C17.6448 12.119 17.4044 12.9059 17.4044 13.8834C17.4044 14.0972 17.5724 14.2702 17.7793 14.2702C17.9865 14.2702 18.1542 14.0969 18.1542 13.8834C18.1542 13.0541 18.3549 12.3924 18.6422 11.8648C18.931 11.335 19.3101 10.9344 19.6626 10.6338C21.0716 9.43334 23.2381 9.8901 23.2443 9.89134Z" fill="black"/>
<path fill-rule="evenodd" clip-rule="evenodd" d="M19.3972 4.49565H20.3353V5.77858H19.3972V4.49565Z" fill="black"/>
<path d="M9.3307 2.53173H3.40964V1.76097H9.3307V2.53173Z" fill="black"/>
<path d="M3.8068 0.773575V5.77662H8.95546V0.773575H3.8068ZM3.05676 0H9.70551V6.55039H3.05676V0Z" fill="black"/>
<path fill-rule="evenodd" clip-rule="evenodd" d="M6.10033 1.37972H6.66254V3.27549H6.10033V1.37972Z" fill="black"/>
<path fill-rule="evenodd" clip-rule="evenodd" d="M21.2944 13.6613C21.0522 13.6613 20.8557 13.4588 20.8557 13.2087C20.8557 12.9589 21.052 12.7561 21.2944 12.7561C21.5365 12.7561 21.733 12.9586 21.733 13.2087C21.733 13.4585 21.5368 13.6613 21.2944 13.6613Z" fill="black"/>
<path fill-rule="evenodd" clip-rule="evenodd" d="M5.15078 13.6613C4.90863 13.6613 4.71213 13.4588 4.71213 13.2087C4.71213 12.9589 4.90838 12.7561 5.15078 12.7561C5.39293 12.7561 5.58943 12.9586 5.58943 13.2087C5.58943 13.4585 5.39318 13.6613 5.15078 13.6613Z" fill="black"/>
<path d="M9.46789 7.28655C9.46789 7.07281 9.29993 6.89977 9.09301 6.89977C8.88584 6.89977 8.71813 7.07306 8.71813 7.28655V9.42727C8.71813 9.641 8.88609 9.81404 9.09301 9.81404C9.30018 9.81404 9.46789 9.64075 9.46789 9.42727V7.28655Z" fill="black"/>
<path d="M7.93337 7.28655C7.93337 7.07281 7.76541 6.89977 7.55849 6.89977C7.35132 6.89977 7.1836 7.07306 7.1836 7.28655V9.42727C7.1836 9.641 7.35157 9.81404 7.55849 9.81404C7.76566 9.81404 7.93337 9.64075 7.93337 9.42727V7.28655Z" fill="black"/>
<path d="M6.39821 7.28655C6.39821 7.07281 6.23025 6.89977 6.02333 6.89977C5.81616 6.89977 5.64845 7.07306 5.64845 7.28655V9.42727C5.64845 9.641 5.81641 9.81404 6.02333 9.81404C6.2305 9.81404 6.39821 9.64075 6.39821 9.42727V7.28655Z" fill="black"/>
<path d="M17.2804 12.462L16.9638 12.2544L16.4155 13.0906L16.732 13.2982L17.2804 12.462ZM16.1211 2.14052V3.14052H16.1215L16.1211 2.14052ZM18.035 2.91407L18.9585 2.53046L18.7024 1.91407H18.035V2.91407ZM19.7353 7.00737L20.5867 7.53179L20.855 7.0962L20.6588 6.62376L19.7353 7.00737ZM16.4839 12.2864V13.2864H17.0424L17.3353 12.8108L16.4839 12.2864ZM12.973 12.2864L12.3132 13.0378L12.5963 13.2864H12.973V12.2864ZM13.72 6.4811L13.1365 5.669L13.0944 5.69928L13.0556 5.73375L13.72 6.4811ZM2.74929 5.92768L3.55111 6.52525L3.55164 6.52453L2.74929 5.92768ZM2.81777 6.47009L2.19648 7.25367L3.01346 7.90144L3.62658 7.05815L2.81777 6.47009ZM2.81851 6.46907L3.44092 5.68637L2.6237 5.0365L2.00969 5.88101L2.81851 6.46907ZM3.35566 7.967L4.16213 8.55827L4.36156 8.28626L4.35549 7.94903L3.35566 7.967ZM0.0885717 12.4233L0.861129 13.0582L0.878693 13.0368L0.89505 13.0145L0.0885717 12.4233ZM1.12811 12.2863L0.321638 11.6951L-0.845019 13.2863H1.12811V12.2863ZM4.02744 8.33175L4.83391 8.92303L4.83475 8.92189L4.02744 8.33175ZM4.10336 8.07732L3.10347 8.06254L3.10297 8.0966L3.10478 8.13061L4.10336 8.07732ZM3.80092 6.54989V5.54989H2.23236L2.89434 6.97192L3.80092 6.54989ZM12.5933 6.54989L13.345 7.20936L14.8008 5.54989H12.5933V6.54989ZM11.9083 12.286V13.286H14.052L12.6745 11.6434L11.9083 12.286ZM16.6842 13.0596L16.6984 12.0597L16.6913 12.0596H16.6842V13.0596ZM17.0062 12.8801L16.1547 12.3558L16.1545 12.3561L17.0062 12.8801ZM20.4646 7.2638L19.6354 6.70475L19.6239 6.72188L19.613 6.73947L20.4646 7.2638ZM20.5018 6.89008L21.4255 6.50711L21.4252 6.50632L20.5018 6.89008ZM18.6358 2.40006L17.6878 2.71825L17.6989 2.75147L17.7124 2.78383L18.6358 2.40006ZM18.2812 2.13973V1.13973L18.2809 1.13973L18.2812 2.13973ZM13.0726 12.3723L13.7112 11.6027L12.9176 10.9442L12.2838 11.7577L13.0726 12.3723ZM12.604 12.9738L11.8151 12.3592L11.2192 13.1241L11.9654 13.7434L12.604 12.9738ZM13.1299 12.915L12.3413 12.3001L12.3413 12.3001L13.1299 12.915ZM3.23765 15.1824L2.51959 15.8784L2.51975 15.8785L3.23765 15.1824ZM3.23765 11.2348L2.51959 10.5388L2.51943 10.5389L3.23765 11.2348ZM7.06392 11.2348L7.78197 10.5388L7.78182 10.5386L7.06392 11.2348ZM7.06392 15.1824L7.78197 15.8784L7.78213 15.8782L7.06392 15.1824ZM3.76787 14.6354L4.48593 13.9394L4.48591 13.9394L3.76787 14.6354ZM6.53369 14.6354L5.81564 13.9394L5.81562 13.9394L6.53369 14.6354ZM6.53369 11.7819L5.81564 12.4779L5.81565 12.4779L6.53369 11.7819ZM3.76787 11.7819L4.48593 12.4779L4.48594 12.4778L3.76787 11.7819ZM19.3813 15.1824L18.6632 15.8784L18.6634 15.8785L19.3813 15.1824ZM19.3813 11.2348L18.6632 10.5388L18.663 10.5389L19.3813 11.2348ZM23.2075 15.1824L23.9256 15.8784L23.9257 15.8782L23.2075 15.1824ZM19.9115 14.6354L20.6295 13.9394L20.6295 13.9394L19.9115 14.6354ZM22.6773 14.6354L21.9592 13.9394L21.9592 13.9394L22.6773 14.6354ZM22.6773 11.7819L21.9592 12.4779L21.9593 12.4779L22.6773 11.7819ZM19.9115 11.7819L20.6295 12.4779L20.6295 12.4778L19.9115 11.7819ZM23.2443 9.89134L23.4421 8.9111L23.4404 8.91077L23.2443 9.89134ZM23.6837 9.58596L22.7012 9.39969L22.7012 9.39992L23.6837 9.58596ZM23.3877 9.13263L23.1789 10.1107L23.1901 10.1129L23.3877 9.13263ZM19.1856 10.0385L19.8341 10.7997L19.8341 10.7997L19.1856 10.0385ZM17.9892 11.487L18.8673 11.9655L18.8673 11.9654L17.9892 11.487ZM18.6422 11.8648L17.7641 11.3862L17.764 11.3866L18.6422 11.8648ZM19.6626 10.6338L19.0141 9.87266L19.0139 9.87285L19.6626 10.6338ZM19.3972 4.49565V3.49565H18.3972V4.49565H19.3972ZM20.3353 4.49565H21.3353V3.49565H20.3353V4.49565ZM20.3353 5.77858V6.77858H21.3353V5.77858H20.3353ZM19.3972 5.77858H18.3972V6.77858H19.3972V5.77858ZM9.3307 2.53173V3.53173H10.3307V2.53173H9.3307ZM3.40964 2.53173H2.40964V3.53173H3.40964V2.53173ZM3.40964 1.76097V0.760972H2.40964V1.76097H3.40964ZM9.3307 1.76097H10.3307V0.760972H9.3307V1.76097ZM3.8068 0.773575V-0.226425H2.8068V0.773575H3.8068ZM3.8068 5.77662H2.8068V6.77662H3.8068V5.77662ZM8.95546 5.77662V6.77662H9.95546V5.77662H8.95546ZM8.95546 0.773575H9.95546V-0.226425H8.95546V0.773575ZM3.05676 0V-1H2.05676V0H3.05676ZM9.70551 0H10.7055V-1H9.70551V0ZM9.70551 6.55039V7.55039H10.7055V6.55039H9.70551ZM3.05676 6.55039H2.05676V7.55039H3.05676V6.55039ZM6.10033 1.37972V0.379723H5.10033V1.37972H6.10033ZM6.66254 1.37972H7.66254V0.379723H6.66254V1.37972ZM6.66254 3.27549V4.27549H7.66254V3.27549H6.66254ZM6.10033 3.27549H5.10033V4.27549H6.10033V3.27549ZM16.1211 1.14052C15.332 1.14052 14.7462 1.79163 14.7462 2.52729H16.7462C16.7462 2.83599 16.4958 3.14052 16.1211 3.14052V1.14052ZM14.7462 2.52729C14.7462 3.26408 15.3331 3.91407 16.1211 3.91407V1.91407C16.4952 1.91407 16.7462 2.21798 16.7462 2.52729H14.7462ZM16.1211 3.91407H18.035V1.91407H16.1211V3.91407ZM17.1115 3.29768L18.8118 7.39097L20.6588 6.62376L18.9585 2.53046L17.1115 3.29768ZM18.8838 6.48294L15.6324 11.7619L17.3353 12.8108L20.5867 7.53179L18.8838 6.48294ZM16.4839 11.2864H12.973V13.2864H16.4839V11.2864ZM13.6327 11.5349C13.0801 11.0496 12.8873 10.6027 12.8355 10.2303C12.7807 9.83639 12.8688 9.41136 13.0685 8.97134C13.4796 8.06588 14.2452 7.35226 14.3845 7.22845L13.0556 5.73375C12.8664 5.902 11.838 6.84392 11.2475 8.14452C10.9464 8.80754 10.7318 9.62317 10.8546 10.5059C10.9803 11.4102 11.4455 12.276 12.3132 13.0378L13.6327 11.5349ZM14.3036 7.2932C14.6572 7.03909 14.8811 6.62317 14.8811 6.16343H12.8811C12.8811 5.96684 12.9774 5.78334 13.1365 5.669L14.3036 7.2932ZM14.8811 6.16343C14.8811 5.42663 14.2942 4.77666 13.5062 4.77666V6.77666C13.132 6.77666 12.8811 6.47276 12.8811 6.16343H14.8811ZM13.5062 4.77666H3.04652V6.77666H13.5062V4.77666ZM3.04652 4.77666C2.62448 4.77666 2.21316 4.97295 1.94694 5.33083L3.55164 6.52453C3.43281 6.68429 3.24379 6.77666 3.04652 6.77666V4.77666ZM1.94747 5.33012C1.50287 5.92668 1.60265 6.78283 2.19648 7.25367L3.43906 5.68651C3.70489 5.89729 3.74314 6.26759 3.55111 6.52525L1.94747 5.33012ZM3.62658 7.05815L3.62733 7.05713L2.00969 5.88101L2.00895 5.88203L3.62658 7.05815ZM2.1961 7.25176C2.18172 7.24032 2.2405 7.28824 2.29362 7.49441C2.34104 7.67849 2.3538 7.87288 2.35582 7.98498L4.35549 7.94903C4.35205 7.7576 4.33219 7.39065 4.23038 6.99545C4.13426 6.62236 3.9272 6.07307 3.44092 5.68637L2.1961 7.25176ZM2.54918 7.37574L-0.717906 11.832L0.89505 13.0145L4.16213 8.55827L2.54918 7.37574ZM-0.683986 11.7883C-0.883863 12.0315 -1 12.3424 -1 12.6731H1C1 12.8134 0.950352 12.9497 0.861129 13.0582L-0.683986 11.7883ZM-1 12.6731C-1 13.4099 -0.413094 14.0599 0.374884 14.0599V12.0599C0.749025 12.0599 1 12.3638 1 12.6731H-1ZM0.374884 14.0599H2.8775V12.0599H0.374884V14.0599ZM2.8775 14.0599C3.66657 14.0599 4.25239 13.4088 4.25239 12.6731H2.25239C2.25239 12.3644 2.50277 12.0599 2.8775 12.0599V14.0599ZM4.25239 12.6731C4.25239 11.9363 3.66549 11.2863 2.8775 11.2863V13.2863C2.50336 13.2863 2.25239 12.9824 2.25239 12.6731H4.25239ZM2.8775 11.2863H1.12811V13.2863H2.8775V11.2863ZM1.93458 12.8776L4.83391 8.92303L3.22097 7.74048L0.321638 11.6951L1.93458 12.8776ZM4.83475 8.92189C5.02952 8.65544 5.11864 8.33695 5.10194 8.02402L3.10478 8.13061C3.09751 7.99429 3.13652 7.85601 3.22014 7.74162L4.83475 8.92189ZM5.10325 8.09209C5.10625 7.8892 5.10281 6.97702 4.7075 6.12786L2.89434 6.97192C2.98637 7.16961 3.04287 7.40405 3.07358 7.62621C3.10364 7.84365 3.1042 8.01342 3.10347 8.06254L5.10325 8.09209ZM3.80092 7.54989H12.5933V5.54989H3.80092V7.54989ZM11.8416 5.89042C11.3023 6.50511 10.5518 7.5167 10.213 8.74163C9.85879 10.0225 9.96535 11.5254 11.1421 12.9286L12.6745 11.6434C11.983 10.8189 11.9342 10.0212 12.1407 9.2747C12.3626 8.47224 12.8886 7.72964 13.345 7.20936L11.8416 5.89042ZM11.9083 11.286H7.42306V13.286H11.9083V11.286ZM7.42306 11.286C6.63397 11.286 6.04817 11.9371 6.04817 12.6728H8.04817C8.04817 12.9815 7.79781 13.286 7.42306 13.286V11.286ZM6.04817 12.6728C6.04817 13.4096 6.63507 14.0596 7.42306 14.0596V12.0596C7.7972 12.0596 8.04817 12.3635 8.04817 12.6728H6.04817ZM7.42306 14.0596H16.6842V12.0596H7.42306V14.0596ZM16.6699 14.0595C17.1425 14.0662 17.5979 13.8267 17.8579 13.4041L16.1545 12.3561C16.2696 12.169 16.4774 12.0565 16.6984 12.0597L16.6699 14.0595ZM17.8577 13.4045L21.3161 7.78813L19.613 6.73947L16.1547 12.3558L17.8577 13.4045ZM21.2937 7.82285C21.5459 7.44884 21.6115 6.95577 21.4255 6.50711L19.578 7.27305C19.4977 7.07934 19.5261 6.86681 19.6354 6.70475L21.2937 7.82285ZM21.4252 6.50632L19.5592 2.0163L17.7124 2.78383L19.5783 7.27384L21.4252 6.50632ZM19.5838 2.08187C19.4059 1.55176 18.9047 1.13973 18.2812 1.13973V3.13973C17.9862 3.13973 17.764 2.94529 17.6878 2.71825L19.5838 2.08187ZM18.2809 1.13973L16.1207 1.14052L16.1215 3.14052L18.2816 3.13973L18.2809 1.13973ZM12.2838 11.7577L11.8151 12.3592L13.3928 13.5884L13.8615 12.9869L12.2838 11.7577ZM11.9654 13.7434C12.5657 14.2416 13.4463 14.1356 13.9186 13.5298L12.3413 12.3001C12.5545 12.0266 12.9642 11.9733 13.2425 12.2043L11.9654 13.7434ZM13.9186 13.5298C14.3774 12.9412 14.2918 12.0845 13.7112 11.6027L12.434 13.1418C12.1755 12.9273 12.1415 12.5564 12.3413 12.3001L13.9186 13.5298ZM5.15078 15C4.69018 15 4.26834 14.8088 3.95554 14.4862L2.51975 15.8785C3.18648 16.5661 4.11725 17 5.15078 17V15ZM3.9557 14.4864C3.64279 14.1636 3.44517 13.7135 3.44517 13.2086H1.44517C1.44517 14.2452 1.85348 15.1911 2.51959 15.8784L3.9557 14.4864ZM3.44517 13.2086C3.44517 12.7038 3.64268 12.2538 3.95586 11.9306L2.51943 10.5389C1.85353 11.2263 1.44517 12.1719 1.44517 13.2086H3.44517ZM3.9557 11.9307C4.26808 11.6085 4.69006 11.4172 5.15078 11.4172V9.41715C4.11737 9.41715 3.18623 9.851 2.51959 10.5388L3.9557 11.9307ZM5.15078 11.4172C5.61138 11.4172 6.03323 11.6083 6.34602 11.9309L7.78182 10.5386C7.11508 9.85105 6.18431 9.41715 5.15078 9.41715V11.4172ZM6.34586 11.9307C6.65877 12.2536 6.85639 12.7036 6.85639 13.2086H8.85639C8.85639 12.172 8.44808 11.226 7.78197 10.5388L6.34586 11.9307ZM6.85639 13.2086C6.85639 13.7134 6.65888 14.1633 6.3457 14.4866L7.78213 15.8782C8.44804 15.1909 8.85639 14.2453 8.85639 13.2086H6.85639ZM6.34586 14.4864C6.03348 14.8087 5.6115 15 5.15078 15V17C6.18419 17 7.11534 16.5662 7.78197 15.8784L6.34586 14.4864ZM3.04981 15.3314C3.58068 15.8791 4.3243 16.2265 5.15078 16.2265V14.2265C4.89713 14.2265 4.66265 14.1218 4.48593 13.9394L3.04981 15.3314ZM5.15078 16.2265C5.97716 16.2265 6.72057 15.8794 7.25176 15.3314L5.81562 13.9394C5.63875 14.1219 5.40454 14.2265 5.15078 14.2265V16.2265ZM7.25175 15.3314C7.7821 14.7842 8.10657 14.0317 8.10657 13.2086H6.10657C6.10657 13.4999 5.99289 13.7566 5.81564 13.9394L7.25175 15.3314ZM8.10657 13.2086C8.10657 12.3857 7.78241 11.6334 7.25174 11.0859L5.81565 12.4779C5.99306 12.6609 6.10657 12.9172 6.10657 13.2086H8.10657ZM7.25175 11.0859C6.72088 10.5382 5.97727 10.1908 5.15078 10.1908V12.1908C5.40443 12.1908 5.63891 12.2955 5.81564 12.4779L7.25175 11.0859ZM5.15078 10.1908C4.3244 10.1908 3.58099 10.5378 3.0498 11.0859L4.48594 12.4778C4.66281 12.2953 4.89703 12.1908 5.15078 12.1908V10.1908ZM3.04981 11.0859C2.51946 11.633 2.19499 12.3856 2.19499 13.2086H4.19499C4.19499 12.9173 4.30868 12.6607 4.48593 12.4779L3.04981 11.0859ZM2.19499 13.2086C2.19499 14.0316 2.51915 14.7839 3.04982 15.3314L4.48591 13.9394C4.3085 13.7564 4.19499 13.5 4.19499 13.2086H2.19499ZM21.2944 15C20.8338 15 20.4119 14.8088 20.0992 14.4862L18.6634 15.8785C19.3301 16.5661 20.2609 17 21.2944 17V15ZM20.0993 14.4864C19.7864 14.1636 19.5888 13.7135 19.5888 13.2086H17.5888C17.5888 14.2452 17.9971 15.1911 18.6632 15.8784L20.0993 14.4864ZM19.5888 13.2086C19.5888 12.7038 19.7863 12.2538 20.0995 11.9306L18.663 10.5389C17.9971 11.2263 17.5888 12.1719 17.5888 13.2086H19.5888ZM20.0993 11.9307C20.4117 11.6085 20.8337 11.4172 21.2944 11.4172V9.41715C20.261 9.41715 19.3298 9.851 18.6632 10.5388L20.0993 11.9307ZM21.2944 11.4172C21.7551 11.4172 22.1771 11.6084 22.4894 11.9307L23.9256 10.5388C23.2589 9.85095 22.3278 9.41715 21.2944 9.41715V11.4172ZM22.4894 11.9307C22.8024 12.2536 23 12.7037 23 13.2086H25C25 12.172 24.5917 11.226 23.9256 10.5388L22.4894 11.9307ZM23 13.2086C23 13.7134 22.8025 14.1633 22.4893 14.4866L23.9257 15.8782C24.5916 15.1909 25 14.2453 25 13.2086H23ZM22.4895 14.4864C22.1771 14.8087 21.7551 15 21.2944 15V17C22.3278 17 23.2589 16.5661 23.9256 15.8784L22.4895 14.4864ZM19.1934 15.3314C19.7243 15.8791 20.4679 16.2265 21.2944 16.2265V14.2265C21.0407 14.2265 20.8063 14.1218 20.6295 13.9394L19.1934 15.3314ZM21.2944 16.2265C22.1208 16.2265 22.8642 15.8794 23.3954 15.3314L21.9592 13.9394C21.7824 14.1219 21.5481 14.2265 21.2944 14.2265V16.2265ZM23.3954 15.3314C23.9257 14.7842 24.2502 14.0317 24.2502 13.2086H22.2502C22.2502 13.5 22.1365 13.7566 21.9592 13.9394L23.3954 15.3314ZM24.2502 13.2086C24.2502 12.3857 23.926 11.6334 23.3953 11.0859L21.9593 12.4779C22.1367 12.6609 22.2502 12.9172 22.2502 13.2086H24.2502ZM23.3954 11.0859C22.8645 10.5382 22.1209 10.1908 21.2944 10.1908V12.1908C21.548 12.1908 21.7825 12.2955 21.9592 12.4779L23.3954 11.0859ZM21.2944 10.1908C20.468 10.1908 19.7246 10.5378 19.1934 11.0859L20.6295 12.4778C20.8064 12.2953 21.0406 12.1908 21.2944 12.1908V10.1908ZM19.1934 11.0859C18.6631 11.633 18.3386 12.3855 18.3386 13.2086H20.3386C20.3386 12.9173 20.4523 12.6607 20.6295 12.4779L19.1934 11.0859ZM18.3386 13.2086C18.3386 14.0316 18.6628 14.7839 19.1934 15.3314L20.6295 13.9394C20.4521 13.7564 20.3386 13.5 20.3386 13.2086H18.3386ZM23.0465 10.8716C23.8232 11.0283 24.5283 10.5007 24.6662 9.77201L22.7012 9.39992C22.7597 9.09055 23.0713 8.83628 23.4421 8.9111L23.0465 10.8716ZM24.6662 9.77223C24.803 9.05042 24.3508 8.30664 23.5853 8.15234L23.1901 10.1129C22.831 10.0405 22.6437 9.70273 22.7012 9.39969L24.6662 9.77223ZM23.5965 8.15466C23.5447 8.14362 22.8204 7.99391 21.8603 8.04777C20.9098 8.1011 19.6126 8.36093 18.537 9.27732L19.8341 10.7997C20.4449 10.2793 21.2452 10.0854 21.9723 10.0446C22.69 10.0044 23.2235 10.1201 23.1789 10.1106L23.5965 8.15466ZM18.537 9.27731C18.0616 9.68235 17.5278 10.2436 17.111 11.0087L18.8673 11.9654C19.1363 11.4716 19.4893 11.0935 19.8341 10.7997L18.537 9.27731ZM17.1111 11.0086C16.6895 11.7823 16.4044 12.733 16.4044 13.8834H18.4044C18.4044 13.0788 18.6001 12.4558 18.8673 11.9655L17.1111 11.0086ZM16.4044 13.8834C16.4044 14.6202 16.9913 15.2702 17.7793 15.2702V13.2702C18.1534 13.2702 18.4044 13.5741 18.4044 13.8834H16.4044ZM17.7793 15.2702C18.5684 15.2702 19.1542 14.6191 19.1542 13.8834H17.1542C17.1542 13.5747 17.4045 13.2702 17.7793 13.2702V15.2702ZM19.1542 13.8834C19.1542 13.2242 19.3116 12.7266 19.5204 12.3431L17.764 11.3866C17.3982 12.0582 17.1542 12.884 17.1542 13.8834H19.1542ZM19.5202 12.3434C19.7342 11.9508 20.022 11.6416 20.3114 11.3948L19.0139 9.87285C18.5983 10.2271 18.1277 10.7191 17.7641 11.3862L19.5202 12.3434ZM20.3112 11.395C20.7775 10.9977 21.4165 10.8412 22.0292 10.8107C22.3249 10.796 22.5867 10.8123 22.7735 10.8323C22.8662 10.8422 22.9383 10.8529 22.9846 10.8605C23.0076 10.8643 23.0241 10.8672 23.0333 10.869C23.0426 10.8707 23.0411 10.8705 23.0482 10.8719L23.4404 8.91077C23.4468 8.91203 23.4276 8.90809 23.4038 8.9036C23.3799 8.89909 23.3478 8.89331 23.3082 8.88683C23.2293 8.87389 23.1202 8.85802 22.9868 8.84371C22.7216 8.81527 22.3526 8.79216 21.9299 8.81317C21.1054 8.85415 19.9568 9.06948 19.0141 9.87266L20.3112 11.395ZM19.3972 5.49565H20.3353V3.49565H19.3972V5.49565ZM19.3353 4.49565V5.77858H21.3353V4.49565H19.3353ZM20.3353 4.77858H19.3972V6.77858H20.3353V4.77858ZM20.3972 5.77858V4.49565H18.3972V5.77858H20.3972ZM9.3307 1.53173H3.40964V3.53173H9.3307V1.53173ZM4.40964 2.53173V1.76097H2.40964V2.53173H4.40964ZM3.40964 2.76097H9.3307V0.760972H3.40964V2.76097ZM8.3307 1.76097V2.53173H10.3307V1.76097H8.3307ZM2.8068 0.773575V5.77662H4.8068V0.773575H2.8068ZM3.8068 6.77662H8.95546V4.77662H3.8068V6.77662ZM9.95546 5.77662V0.773575H7.95546V5.77662H9.95546ZM8.95546 -0.226425H3.8068V1.77357H8.95546V-0.226425ZM3.05676 1H9.70551V-1H3.05676V1ZM8.70551 0V6.55039H10.7055V0H8.70551ZM9.70551 5.55039H3.05676V7.55039H9.70551V5.55039ZM6.10033 2.37972H6.66254V0.379723H6.10033V2.37972ZM5.66254 1.37972V3.27549H7.66254V1.37972H5.66254ZM6.66254 2.27549H6.10033V4.27549H6.66254V2.27549ZM7.10033 3.27549V1.37972H5.10033V3.27549H7.10033ZM21.2944 12.6613C21.6334 12.6613 21.8557 12.9358 21.8557 13.2087H19.8557C19.8557 13.9818 20.4711 14.6613 21.2944 14.6613V12.6613ZM21.8557 13.2087C21.8557 13.4811 21.6338 13.7561 21.2944 13.7561V11.7561C20.4701 11.7561 19.8557 12.4366 19.8557 13.2087H21.8557ZM21.2944 13.7561C20.9554 13.7561 20.733 13.4816 20.733 13.2087H22.733C22.733 12.4356 22.1177 11.7561 21.2944 11.7561V13.7561ZM20.733 13.2087C20.733 12.9363 20.9549 12.6613 21.2944 12.6613V14.6613C22.1186 14.6613 22.733 13.9808 22.733 13.2087H20.733ZM5.15078 12.6613C5.48976 12.6613 5.71213 12.9358 5.71213 13.2087H3.71213C3.71213 13.9818 4.3275 14.6613 5.15078 14.6613V12.6613ZM5.71213 13.2087C5.71213 13.4811 5.49023 13.7561 5.15078 13.7561V11.7561C4.32653 11.7561 3.71213 12.4366 3.71213 13.2087H5.71213ZM5.15078 13.7561C4.81181 13.7561 4.58943 13.4816 4.58943 13.2087H6.58943C6.58943 12.4356 5.97406 11.7561 5.15078 11.7561V13.7561ZM4.58943 13.2087C4.58943 12.9363 4.81133 12.6613 5.15078 12.6613V14.6613C5.97503 14.6613 6.58943 13.9808 6.58943 13.2087H4.58943ZM10.4679 7.28655C10.4679 6.54974 9.88099 5.89977 9.09301 5.89977V7.89977C8.71887 7.89977 8.46789 7.59588 8.46789 7.28655H10.4679ZM9.09301 5.89977C8.30393 5.89977 7.71813 6.55088 7.71813 7.28655H9.71813C9.71813 7.59525 9.46775 7.89977 9.09301 7.89977V5.89977ZM7.71813 7.28655V9.42727H9.71813V7.28655H7.71813ZM7.71813 9.42727C7.71813 10.1641 8.30503 10.814 9.09301 10.814V8.81404C9.46715 8.81404 9.71813 9.11794 9.71813 9.42727H7.71813ZM9.09301 10.814C9.88208 10.814 10.4679 10.1629 10.4679 9.42727H8.46789C8.46789 9.11855 8.71827 8.81404 9.09301 8.81404V10.814ZM10.4679 9.42727V7.28655H8.46789V9.42727H10.4679ZM8.93337 7.28655C8.93337 6.54974 8.34646 5.89977 7.55849 5.89977V7.89977C7.18435 7.89977 6.93337 7.59588 6.93337 7.28655H8.93337ZM7.55849 5.89977C6.76941 5.89977 6.1836 6.55088 6.1836 7.28655H8.1836C8.1836 7.59525 7.93323 7.89977 7.55849 7.89977V5.89977ZM6.1836 7.28655V9.42727H8.1836V7.28655H6.1836ZM6.1836 9.42727C6.1836 10.1641 6.77051 10.814 7.55849 10.814V8.81404C7.93263 8.81404 8.1836 9.11794 8.1836 9.42727H6.1836ZM7.55849 10.814C8.34756 10.814 8.93337 10.1629 8.93337 9.42727H6.93337C6.93337 9.11855 7.18375 8.81404 7.55849 8.81404V10.814ZM8.93337 9.42727V7.28655H6.93337V9.42727H8.93337ZM7.39821 7.28655C7.39821 6.54975 6.81131 5.89977 6.02333 5.89977V7.89977C5.64919 7.89977 5.39821 7.59587 5.39821 7.28655H7.39821ZM6.02333 5.89977C5.23426 5.89977 4.64845 6.55087 4.64845 7.28655H6.64845C6.64845 7.59526 6.39807 7.89977 6.02333 7.89977V5.89977ZM4.64845 7.28655V9.42727H6.64845V7.28655H4.64845ZM4.64845 9.42727C4.64845 10.1641 5.23536 10.814 6.02333 10.814V8.81404C6.39747 8.81404 6.64845 9.11793 6.64845 9.42727H4.64845ZM6.02333 10.814C6.81241 10.814 7.39821 10.1629 7.39821 9.42727H5.39821C5.39821 9.11856 5.64859 8.81404 6.02333 8.81404V10.814ZM7.39821 9.42727V7.28655H5.39821V9.42727H7.39821ZM4.05676 6.55039V0H2.05676V6.55039H4.05676Z" fill="black" mask="url(#path-1-inside-1_503_956)"/>
</svg>
