<svg width="40" height="40" viewBox="0 0 40 40" fill="none" xmlns="http://www.w3.org/2000/svg">
<path d="M0 19.4929V20.571C0.28125 30.9144 8.60938 39.2188 18.5234 40H21.5703C31.5391 39.211 39.7266 30.8363 40 20.5554V19.4929C39.7266 9.03232 31.2578 0.548237 21.0469 0.0248179C10.0625 -0.52985 0.304688 8.28235 0 19.4929Z" fill="#495E57"/>
<path d="M20.0938 10.0479C23.2813 10.0479 23.6563 10.0557 24.9219 10.1182C26.0859 10.1651 26.7109 10.3682 27.1328 10.5323C27.6875 10.751 28.0859 11.0166 28.5 11.4385C28.9141 11.8603 29.1797 12.2666 29.3984 12.8291C29.5625 13.2587 29.75 13.8993 29.8125 15.0868C29.875 16.368 29.8828 16.7508 29.8828 19.9929C29.8828 23.2349 29.875 23.6177 29.8125 24.8989C29.7656 26.0786 29.5703 26.727 29.3984 27.1567C29.1797 27.7192 28.9219 28.1254 28.5 28.5473C28.0859 28.9691 27.6875 29.2347 27.1328 29.4535C26.7109 29.6253 26.0781 29.8207 24.9219 29.8675C23.6641 29.93 23.2813 29.9378 20.0938 29.9378C16.9063 29.9378 16.5313 29.93 15.2656 29.8675C14.1016 29.8207 13.4766 29.6175 13.0547 29.4535C12.5 29.2347 12.1016 28.9691 11.6875 28.5473C11.2734 28.1254 11.0078 27.7192 10.7891 27.1567C10.625 26.727 10.4375 26.0864 10.375 24.8989C10.3125 23.6177 10.3047 23.2349 10.3047 19.9929C10.3047 16.7508 10.3125 16.368 10.375 15.0868C10.4219 13.9071 10.6172 13.2587 10.7891 12.8291C11.0078 12.2666 11.2656 11.8603 11.6875 11.4385C12.1016 11.0166 12.5 10.751 13.0547 10.5323C13.4766 10.3604 14.1094 10.1651 15.2656 10.1182C16.5234 10.0635 16.9063 10.0479 20.0938 10.0479ZM20.0938 7.86047C16.8516 7.86047 16.4453 7.8761 15.1797 7.9386C13.9141 8.00109 13.0391 8.20421 12.2813 8.50108C11.4922 8.81357 10.8281 9.22761 10.1719 9.90728C9.50781 10.5869 9.10156 11.2588 8.79688 12.0635C8.5 12.8291 8.29688 13.7196 8.24219 15.0087C8.17969 16.2977 8.17188 16.7117 8.17188 20.0085C8.17188 23.3053 8.1875 23.7193 8.24219 25.0083C8.30469 26.2973 8.50781 27.1801 8.79688 27.9535C9.10156 28.7504 9.50781 29.43 10.1719 30.1097C10.8359 30.7894 11.5 31.2034 12.2813 31.5159C13.0391 31.8206 13.9141 32.0237 15.1797 32.0784C16.4531 32.1409 16.8594 32.1565 20.0938 32.1565C23.3281 32.1565 23.7422 32.1409 25.0078 32.0784C26.2734 32.0159 27.1484 31.8128 27.9063 31.5159C28.6953 31.2034 29.3594 30.7894 30.0156 30.1097C30.6797 29.43 31.0859 28.7582 31.3906 27.9535C31.6875 27.1879 31.8906 26.2973 31.9453 25.0083C32.0078 23.7193 32.0156 23.3053 32.0156 20.0085C32.0156 16.7117 32 16.2977 31.9453 15.0087C31.8828 13.7196 31.6797 12.8369 31.3906 12.0635C31.0859 11.2666 30.6797 10.5869 30.0156 9.90728C29.3516 9.22761 28.6875 8.81357 27.9063 8.50108C27.1484 8.1964 26.2734 7.99328 25.0078 7.9386C23.7422 7.8761 23.3281 7.86047 20.0938 7.86047Z" fill="white"/>
<path d="M20.0938 13.7665C16.7031 13.7665 13.9688 16.5554 13.9688 20.0006C13.9688 23.4458 16.7109 26.2348 20.0938 26.2348C23.4766 26.2348 26.2188 23.4458 26.2188 20.0006C26.2188 16.5554 23.4766 13.7665 20.0938 13.7665ZM20.0938 24.0474C17.8984 24.0474 16.1172 22.2427 16.1172 20.0006C16.1172 17.7585 17.8984 15.9539 20.0938 15.9539C22.2891 15.9539 24.0703 17.7585 24.0703 20.0006C24.0703 22.2427 22.2891 24.0474 20.0938 24.0474Z" fill="white"/>
<path d="M26.4609 14.9695C27.2505 14.9695 27.8906 14.3189 27.8906 13.5164C27.8906 12.7139 27.2505 12.0634 26.4609 12.0634C25.6713 12.0634 25.0312 12.7139 25.0312 13.5164C25.0312 14.3189 25.6713 14.9695 26.4609 14.9695Z" fill="white"/>
</svg>
